<?xml version='1.0' encoding='utf-8'?>
<svg xmlns:xlink="http://www.w3.org/1999/xlink" xmlns="http://www.w3.org/2000/svg" width="28.02877mm" height="28.028765mm" viewBox="0 0 28.02877 28.028765" version="1.1" id="svg5"><defs id="defs2"><linearGradient id="linearGradient34732"><stop style="stop-color:#1ad03f;stop-opacity:1;" offset="0" id="stop34726"/><stop style="stop-color:#79d08a;stop-opacity:1;" offset="0.51130199" id="stop34728"/><stop style="stop-color:#1ad03f;stop-opacity:1;" offset="1" id="stop34730"/></linearGradient><linearGradient id="linearGradient33478"><stop style="stop-color:#fcfcfc;stop-opacity:1;" offset="0" id="stop33466"/><stop style="stop-color:#e7e7e7;stop-opacity:1;" offset="0.26388478" id="stop33484"/><stop style="stop-color:#dbdbdb;stop-opacity:1;" offset="0.3776851" id="stop33468"/><stop style="stop-color:#979797;stop-opacity:1;" offset="0.49550667" id="stop33470"/><stop style="stop-color:#f6f6f6;stop-opacity:1;" offset="0.6140855" id="stop33472"/><stop style="stop-color:#212121;stop-opacity:1;" offset="0.62279713" id="stop33474"/><stop style="stop-color:#8d8d8d;stop-opacity:1;" offset="0.68744886" id="stop33480"/><stop style="stop-color:#dddddd;stop-opacity:1;" offset="0.84372443" id="stop33482"/><stop style="stop-color:#dadada;stop-opacity:1;" offset="1" id="stop33476"/></linearGradient><linearGradient id="linearGradient33273"><stop style="stop-color:#dbdbdb;stop-opacity:1;" offset="0" id="stop33263"/><stop style="stop-color:#000000;stop-opacity:1;" offset="0.5929603" id="stop33265"/><stop style="stop-color:#f6f6f6;stop-opacity:1;" offset="0.69787365" id="stop33267"/><stop style="stop-color:#979797;stop-opacity:1;" offset="0.76128864" id="stop33269"/><stop style="stop-color:#eeeeee;stop-opacity:1;" offset="1" id="stop33271"/></linearGradient><filter style="color-interpolation-filters:sRGB" id="filter32086" x="-0.0296645" y="-0.029664503" width="1.059329" height="1.059329"><feGaussianBlur stdDeviation="0.29766355" id="feGaussianBlur32088"/></filter><linearGradient xlink:href="#linearGradient33478" id="linearGradient34323" gradientUnits="userSpaceOnUse" gradientTransform="matrix(1.1388338,0,0,1.1388338,-64.139261,155.92597)" x1="138.39984" y1="118.075" x2="138.39984" y2="141.3084"/><linearGradient xlink:href="#linearGradient33273" id="linearGradient34325" gradientUnits="userSpaceOnUse" gradientTransform="matrix(1.1388338,0,0,1.1388338,-64.139261,155.92597)" x1="132.99979" y1="118.075" x2="132.99979" y2="141.3084" spreadMethod="repeat"/><filter style="color-interpolation-filters:sRGB" id="filter34560" x="-0.19408797" y="-0.19250867" width="1.3881758" height="1.3850021"><feGaussianBlur stdDeviation="1.0404444" id="feGaussianBlur34562"/></filter><linearGradient xlink:href="#linearGradient33478" id="linearGradient34718" gradientUnits="userSpaceOnUse" gradientTransform="matrix(1.1388338,0,0,1.1388338,-133.01021,129.2669)" x1="138.39984" y1="118.075" x2="138.39984" y2="141.3084"/><linearGradient xlink:href="#linearGradient33273" id="linearGradient34720" gradientUnits="userSpaceOnUse" gradientTransform="matrix(1.1388338,0,0,1.1388338,-133.01021,129.2669)" x1="132.99979" y1="118.075" x2="132.99979" y2="141.3084" spreadMethod="repeat"/><linearGradient xlink:href="#linearGradient34732" id="linearGradient34724" gradientUnits="userSpaceOnUse" gradientTransform="matrix(0.35999997,0,0,1.125,98.901028,95.724535)" x1="107.13821" y1="140.65018" x2="107.13821" y2="161.81685"/></defs><g id="layer1" transform="translate(184.36611,-85.496448)"><g id="g35510" transform="translate(-307.8225,-166.88056)"><rect style="fill:url(#linearGradient34724);fill-opacity:1;stroke:none;stroke-width:2.11668;stroke-linecap:round;stroke-linejoin:round;stroke-dasharray:none;stroke-opacity:1;paint-order:markers stroke fill" id="rect34722" width="23.8125" height="23.8125" x="125.56453" y="253.95596" rx="2.6458333" ry="2.6458333"/><g id="g34716" transform="translate(115.91152,-10.5728)"><g id="g34712" style="fill:#000000;stroke:#000000;filter:url(#filter32086)" transform="translate(-7.669131,70.335841)"><path style="color:#000000;font-variation-settings:normal;opacity:1;fill:#000000;fill-opacity:1;stroke:#000000;stroke-width:0.141;stroke-linecap:butt;stroke-linejoin:miter;stroke-miterlimit:4;stroke-dasharray:none;stroke-dashoffset:0;stroke-opacity:1;paint-order:markers stroke fill;stop-color:#000000;stop-opacity:1" d="m 19.703974,193.39886 c -2.033804,0 -3.705078,1.67127 -3.705078,3.70508 v 19.04882 c 0,2.03381 1.671274,3.70508 3.705078,3.70508 h 19.048828 c 2.033804,0 3.705078,-1.67127 3.705078,-3.70508 v -19.04882 c 0,-2.03381 -1.671274,-3.70508 -3.705078,-3.70508 z m 0,2.11719 h 19.048828 c 0.897777,0 1.587891,0.69011 1.587891,1.58789 v 19.04882 c 0,0.89778 -0.690114,1.5879 -1.587891,1.58789 H 19.703974 c -0.897777,0 -1.587891,-0.69011 -1.587891,-1.58789 v -19.04882 c 0,-0.89778 0.690114,-1.58789 1.587891,-1.58789 z" id="path34710"/></g><path style="color:#000000;font-variation-settings:normal;fill:url(#linearGradient34718);fill-opacity:1;stroke:url(#linearGradient34720);stroke-width:0.141;stroke-linecap:butt;stroke-linejoin:miter;stroke-miterlimit:4;stroke-dasharray:none;stroke-dashoffset:0;stroke-opacity:1;paint-order:markers stroke fill;stop-color:#000000" d="m 12.034843,263.7347 c -2.033804,0 -3.7050782,1.67127 -3.7050782,3.70508 v 19.04882 c 0,2.03381 1.6712742,3.70508 3.7050782,3.70508 h 19.048828 c 2.033804,0 3.705078,-1.67127 3.705078,-3.70508 v -19.04882 c 0,-2.03381 -1.671274,-3.70508 -3.705078,-3.70508 z m 0,2.11719 h 19.048828 c 0.897777,0 1.587891,0.69011 1.587891,1.58789 v 19.04882 c 0,0.89778 -0.690114,1.5879 -1.587891,1.58789 H 12.034843 c -0.897777,0 -1.587891,-0.69011 -1.587891,-1.58789 v -19.04882 c 0,-0.89778 0.690114,-1.58789 1.587891,-1.58789 z" id="path34714"/></g><g id="g34606" transform="translate(47.040563,-37.231873)"><path id="path34486" style="font-variation-settings:normal;opacity:1;fill:#000000;fill-opacity:1;stroke:#000000;stroke-width:0.141;stroke-linecap:butt;stroke-linejoin:miter;stroke-miterlimit:4;stroke-dasharray:none;stroke-dashoffset:0;stroke-opacity:1;paint-order:markers stroke fill;filter:url(#filter34560);stop-color:#000000;stop-opacity:1" d="m 90.467595,296.95476 c -0.11955,-6.6e-4 -0.23973,0.002 -0.3607,0.008 -3.52228,0.16771 -6.30178,3.10125 -6.29109,6.6275 0.003,1.07401 0.26246,2.08757 0.71985,2.98328 l -0.70228,3.4091 c -0.038,0.18439 0.12843,0.34568 0.31161,0.3023 l 3.34036,-0.79168 c 0.85817,0.42748 1.82207,0.67484 2.84221,0.6904 3.60009,0.055 6.60159,-2.80396 6.7138,-6.40271 0.11652,-3.73709 -2.86769,-6.80543 -6.57376,-6.82594 z m -0.0372,1.43505 c 1.38341,3e-5 2.68408,0.53902 3.66231,1.51722 0.97823,0.97823 1.51668,2.2789 1.51671,3.66231 -3e-5,1.37109 -0.54722,2.69285 -1.51671,3.66231 -0.97823,0.97822 -2.27891,1.5167 -3.66231,1.5167 -0.81003,0 -1.58573,-0.1816 -2.30528,-0.54001 l -0.46509,-0.23152 -2.04794,0.48525 0.43099,-2.0929 -0.22893,-0.44855 c -0.37354,-0.73155 -0.56327,-1.52271 -0.56327,-2.35128 0,-1.38344 0.53899,-2.68405 1.51722,-3.66231 0.96947,-0.96949 2.29125,-1.51722 3.6623,-1.51722 z m -2.17764,1.9911 c -0.10811,-1.4e-4 -0.21812,0.0364 -0.30954,0.11368 -0.35759,0.30244 -0.78145,0.76208 -0.83303,1.27124 -0.0909,0.89769 0.29393,2.02913 1.74977,3.38791 1.68189,1.56978 3.02877,1.77719 3.9057,1.56476 0.49739,-0.12047 0.8948,-0.60345 1.14567,-0.9989 0.17103,-0.26962 0.0361,-0.62759 -0.27079,-0.71572 l -1.28105,-0.36794 c -0.16845,-0.0483 -0.3501,-5.2e-4 -0.47284,0.12454 l -0.31316,0.31936 c -0.13211,0.13461 -0.33262,0.17772 -0.50747,0.10697 -0.60609,-0.24528 -1.88098,-1.37911 -2.20658,-1.94613 -0.0939,-0.16356 -0.0786,-0.36804 0.0367,-0.51728 l 0.27337,-0.35398 c 0.10718,-0.13865 0.1298,-0.32445 0.0589,-0.48473 l -0.53898,-1.21956 c -0.0807,-0.18251 -0.25648,-0.28399 -0.43667,-0.28422 z"/><path id="path23976" style="font-variation-settings:normal;opacity:1;fill:url(#linearGradient34323);fill-opacity:1;stroke:url(#linearGradient34325);stroke-width:0.141;stroke-linecap:butt;stroke-linejoin:miter;stroke-miterlimit:4;stroke-dasharray:none;stroke-dashoffset:0;stroke-opacity:1;paint-order:markers stroke fill;stop-color:#000000;stop-opacity:1" d="m 90.467595,296.95476 c -0.11955,-6.6e-4 -0.23973,0.002 -0.3607,0.008 -3.52228,0.16771 -6.30178,3.10125 -6.29109,6.6275 0.003,1.07401 0.26246,2.08757 0.71985,2.98328 l -0.70228,3.4091 c -0.038,0.18439 0.12843,0.34568 0.31161,0.3023 l 3.34036,-0.79168 c 0.85817,0.42748 1.82207,0.67484 2.84221,0.6904 3.60009,0.055 6.60159,-2.80396 6.7138,-6.40271 0.11652,-3.73709 -2.86769,-6.80543 -6.57376,-6.82594 z m -0.0372,1.43505 c 1.38341,3e-5 2.68408,0.53902 3.66231,1.51722 0.97823,0.97823 1.51668,2.2789 1.51671,3.66231 -3e-5,1.37109 -0.54722,2.69285 -1.51671,3.66231 -0.97823,0.97822 -2.27891,1.5167 -3.66231,1.5167 -0.81003,0 -1.58573,-0.1816 -2.30528,-0.54001 l -0.46509,-0.23152 -2.04794,0.48525 0.43099,-2.0929 -0.22893,-0.44855 c -0.37354,-0.73155 -0.56327,-1.52271 -0.56327,-2.35128 0,-1.38344 0.53899,-2.68405 1.51722,-3.66231 0.96947,-0.96949 2.29125,-1.51722 3.6623,-1.51722 z m -2.17764,1.9911 c -0.10811,-1.4e-4 -0.21812,0.0364 -0.30954,0.11368 -0.35759,0.30244 -0.78145,0.76208 -0.83303,1.27124 -0.0909,0.89769 0.29393,2.02913 1.74977,3.38791 1.68189,1.56978 3.02877,1.77719 3.9057,1.56476 0.49739,-0.12047 0.8948,-0.60345 1.14567,-0.9989 0.17103,-0.26962 0.0361,-0.62759 -0.27079,-0.71572 l -1.28105,-0.36794 c -0.16845,-0.0483 -0.3501,-5.2e-4 -0.47284,0.12454 l -0.31316,0.31936 c -0.13211,0.13461 -0.33262,0.17772 -0.50747,0.10697 -0.60609,-0.24528 -1.88098,-1.37911 -2.20658,-1.94613 -0.0939,-0.16356 -0.0786,-0.36804 0.0367,-0.51728 l 0.27337,-0.35398 c 0.10718,-0.13865 0.1298,-0.32445 0.0589,-0.48473 l -0.53898,-1.21956 c -0.0807,-0.18251 -0.25648,-0.28399 -0.43667,-0.28422 z"/></g></g></g><style type="text/css" id="style15623"> .st0{fill:#000000;} </style></svg>